<?xml version="1.0" encoding="utf-8"?>
<!-- Generator: Adobe Illustrator 16.0.0, SVG Export Plug-In . SVG Version: 6.00 Build 0)  -->
<!DOCTYPE svg PUBLIC "-//W3C//DTD SVG 1.1//EN" "http://www.w3.org/Graphics/SVG/1.1/DTD/svg11.dtd">
<svg version="1.1" id="Layer_1" xmlns="http://www.w3.org/2000/svg" xmlns:xlink="http://www.w3.org/1999/xlink" x="0px" y="0px"
	 width="34px" height="25px" viewBox="0 0 34 25" enable-background="new 0 0 34 25" xml:space="preserve">
<g id="REGEN_ICON">
	<g>
		<path fill="#FFFFFF" d="M11.45,24.257c-0.479,0-0.942-0.115-1.304-0.324l-7.949-4.59c-0.743-0.428-1.304-1.398-1.304-2.258V7.904
			c0-0.858,0.561-1.829,1.304-2.258l7.949-4.591c0.723-0.417,1.885-0.417,2.607,0l7.95,4.591c0.743,0.429,1.304,1.399,1.304,2.258
			v9.181c0,0.859-0.561,1.83-1.304,2.258l-7.95,4.59C12.393,24.142,11.93,24.257,11.45,24.257z M11.45,2.482
			c-0.202,0-0.354,0.046-0.429,0.089L3.072,7.162C2.868,7.28,2.644,7.668,2.644,7.904v9.181c0,0.236,0.225,0.625,0.429,0.742
			l7.949,4.59c0.148,0.086,0.709,0.086,0.857,0l7.95-4.59c0.204-0.117,0.429-0.506,0.429-0.742V7.904
			c0-0.236-0.225-0.625-0.429-0.742l-7.95-4.591C11.805,2.528,11.652,2.482,11.45,2.482z"/>
		<path fill="#FFFFFF" d="M22.55,24.257c-0.479,0-0.942-0.115-1.304-0.324l-7.95-4.59c-0.743-0.428-1.304-1.398-1.304-2.258V7.904
			c0-0.858,0.561-1.829,1.304-2.258l7.95-4.591c0.723-0.417,1.885-0.417,2.607,0l7.949,4.591c0.743,0.429,1.304,1.399,1.304,2.258
			v9.181c0,0.859-0.561,1.83-1.304,2.258l-7.949,4.59C23.492,24.142,23.029,24.257,22.55,24.257z M22.55,2.482
			c-0.202,0-0.354,0.046-0.429,0.089l-7.95,4.591c-0.204,0.118-0.429,0.506-0.429,0.742v9.181c0,0.236,0.225,0.625,0.429,0.742
			l7.95,4.59c0.148,0.086,0.709,0.086,0.857,0l7.949-4.59c0.204-0.117,0.429-0.506,0.429-0.742V7.904
			c0-0.236-0.225-0.625-0.429-0.742l-7.949-4.591C22.904,2.528,22.752,2.482,22.55,2.482z"/>
	</g>
</g>
</svg>
