<?xml version="1.0" encoding="utf-8"?>
<!-- Generator: Adobe Illustrator 16.0.0, SVG Export Plug-In . SVG Version: 6.00 Build 0)  -->
<!DOCTYPE svg PUBLIC "-//W3C//DTD SVG 1.1//EN" "http://www.w3.org/Graphics/SVG/1.1/DTD/svg11.dtd">
<svg version="1.1" id="Layer_1" xmlns="http://www.w3.org/2000/svg" xmlns:xlink="http://www.w3.org/1999/xlink" x="0px" y="0px"
	 width="34px" height="25px" viewBox="0 0 34 25" enable-background="new 0 0 34 25" xml:space="preserve">
<g id="SAVE_ICON">
	<g>
		<path fill="#FFFFFF" d="M17,14.563c-0.828,0-1.5-0.671-1.5-1.5V1.632c0-0.829,0.672-1.5,1.5-1.5s1.5,0.671,1.5,1.5v11.432
			C18.5,13.893,17.828,14.563,17,14.563z"/>
		<g>
			<polygon fill="#FFFFFF" points="12.513,11.751 17,19.522 21.487,11.751 			"/>
		</g>
	</g>
	<path fill="#FFFFFF" d="M26.913,24.868H7.086c-1.125,0-2.041-0.916-2.041-2.041v-8.941c0-1.125,0.916-2.041,2.041-2.041h2.819
		c0.483,0,0.875,0.392,0.875,0.875s-0.392,0.875-0.875,0.875H7.086c-0.158,0-0.291,0.133-0.291,0.291v8.941
		c0,0.158,0.133,0.291,0.291,0.291h19.827c0.158,0,0.292-0.133,0.292-0.291v-8.941c0-0.158-0.134-0.291-0.292-0.291h-3.011
		c-0.483,0-0.875-0.392-0.875-0.875s0.392-0.875,0.875-0.875h3.011c1.126,0,2.042,0.916,2.042,2.041v8.941
		C28.955,23.952,28.039,24.868,26.913,24.868z"/>
</g>
</svg>
