<?xml version="1.0" encoding="utf-8"?>
<!-- Generator: Adobe Illustrator 16.0.0, SVG Export Plug-In . SVG Version: 6.00 Build 0)  -->
<!DOCTYPE svg PUBLIC "-//W3C//DTD SVG 1.1//EN" "http://www.w3.org/Graphics/SVG/1.1/DTD/svg11.dtd">
<svg version="1.1" id="Layer_1" xmlns="http://www.w3.org/2000/svg" xmlns:xlink="http://www.w3.org/1999/xlink" x="0px" y="0px"
	 width="60px" height="87px" viewBox="0 0 60 87" enable-background="new 0 0 60 87" xml:space="preserve">
<g>
	<g>
		<g id="Close_Button_1_">
			<path fill="#15BDD3" d="M30,0C13.458,0,0,13.458,0,30c0,16.542,13.458,30,30,30s30-13.458,30-30C60,13.458,46.542,0,30,0z"/>
			<path fill="#15BDD3" stroke="#F0EFEF" stroke-width="1.5" stroke-miterlimit="10" d="M26.987,21.181"/>
			<path opacity="0.1" fill="#272626" d="M30,59.625C13.665,59.625,0.375,46.335,0.375,30C0.375,13.665,13.665,0.375,30,0.375
				S59.625,13.665,59.625,30C59.625,46.335,46.335,59.625,30,59.625z M30,3.375C15.319,3.375,3.375,15.319,3.375,30
				c0,14.682,11.944,26.625,26.625,26.625S56.625,44.682,56.625,30C56.625,15.319,44.681,3.375,30,3.375z"/>
		</g>
		<path fill="#F3F3F3" d="M19.308,46.198c-0.911,0-1.766-0.354-2.407-0.995l-2.103-2.101c-1.327-1.328-1.327-3.488-0.001-4.816
			l9.692-9.689c-0.426-1.202-0.642-2.46-0.642-3.749c0-6.233,5.071-11.305,11.305-11.305c1.528,0,3.01,0.299,4.401,0.889
			l1.196,0.506l-8.445,8.446l3.811,3.811l8.554-8.553l0.547,1.069c0.825,1.61,1.243,3.338,1.243,5.136
			c0,6.234-5.072,11.306-11.307,11.306c-1.283,0-2.54-0.215-3.746-0.64l-9.692,9.688C21.073,45.845,20.219,46.198,19.308,46.198z
			 M35.152,15.294c-5.269,0-9.555,4.286-9.555,9.555c0,1.256,0.242,2.478,0.721,3.631l0.224,0.54L16.034,39.524
			c-0.645,0.646-0.645,1.696,0.001,2.341l2.103,2.101c0.623,0.622,1.718,0.622,2.339,0l10.506-10.502l0.539,0.222
			c1.159,0.477,2.381,0.718,3.631,0.718c5.27,0,9.557-4.287,9.557-9.556c0-1.107-0.188-2.183-0.56-3.211l-8.034,8.033l-6.285-6.286
			l7.773-7.775C36.811,15.4,35.99,15.294,35.152,15.294z"/>
	</g>
	<rect x="2.215" y="69.087" fill="none" width="55.832" height="17.584"/>
	<text transform="matrix(1 0 0 1 3.0508 80.4473)" fill="#15BDD3" font-family="'Dosis-Bold'" font-size="16">ToolBox</text>
</g>
</svg>
